# xmcd CD database file
#
# Track frame offsets:
#	150
#	18016
#	32387
#	47617
#	60019
#	81107
#	97471
#	112277
#	128360
#	144613
#	154808
#	172940
#	184173
#	199652
#	215924
#	235008
#
# Disc length: 3325 seconds
#
# Revision: 1
# Processed by: cddbd v1.5.1PL0 Copyright (c) Steve Scherf et al.
# Submitted via: CDex 1.51
#
DISCID=d00cfb10
DTITLE=Rich Chorné - My First Car
DYEAR=2000
DGENRE=Blues
TTITLE0=Route 66
TTITLE1=Outside Lookin' In
TTITLE2=My First Car (Bossa)
TTITLE3=Katerina
TTITLE4=Kiss
TTITLE5=I've Known Your Love
TTITLE6=La Bamba
TTITLE7=It's Your Thing
TTITLE8=Walking the Dog
TTITLE9=My First Car
TTITLE10=Barefootin'
TTITLE11=I Fought the Law
TTITLE12=Complainin'
TTITLE13=Crazy 'bout You, Baby
TTITLE14=Bouncing Betty
TTITLE15=Even the Score
EXTD=YEAR: 2000
EXTT0=
EXTT1=
EXTT2=
EXTT3=
EXTT4=
EXTT5=
EXTT6=
EXTT7=
EXTT8=
EXTT9=
EXTT10=
EXTT11=
EXTT12=
EXTT13=
EXTT14=
EXTT15=
PLAYORDER=
